<svg xmlns="http://www.w3.org/2000/svg" width="720" height="460" font-family="Helvetica,Arial,sans-serif">
<rect width="720" height="460" fill="white"/>
<text x="70.0" y="26.0" font-size="16" fill="#222" text-anchor="start" font-weight="bold">Accuracy vs cumulative cost (hotpot_dryrun)</text>
<line x1="70.0" y1="404.0" x2="490.0" y2="404.0" stroke="#e8e8e8" stroke-width="1"/>
<text x="62.0" y="408.0" font-size="11" fill="#666" text-anchor="end" font-weight="normal">0.0</text>
<line x1="70.0" y1="332.4" x2="490.0" y2="332.4" stroke="#e8e8e8" stroke-width="1"/>
<text x="62.0" y="336.4" font-size="11" fill="#666" text-anchor="end" font-weight="normal">0.2</text>
<line x1="70.0" y1="260.8" x2="490.0" y2="260.8" stroke="#e8e8e8" stroke-width="1"/>
<text x="62.0" y="264.8" font-size="11" fill="#666" text-anchor="end" font-weight="normal">0.4</text>
<line x1="70.0" y1="189.2" x2="490.0" y2="189.2" stroke="#e8e8e8" stroke-width="1"/>
<text x="62.0" y="193.2" font-size="11" fill="#666" text-anchor="end" font-weight="normal">0.6</text>
<line x1="70.0" y1="117.6" x2="490.0" y2="117.6" stroke="#e8e8e8" stroke-width="1"/>
<text x="62.0" y="121.6" font-size="11" fill="#666" text-anchor="end" font-weight="normal">0.8</text>
<line x1="70.0" y1="46.0" x2="490.0" y2="46.0" stroke="#e8e8e8" stroke-width="1"/>
<text x="62.0" y="50.0" font-size="11" fill="#666" text-anchor="end" font-weight="normal">1.0</text>
<line x1="70.0" y1="46.0" x2="70.0" y2="404.0" stroke="#333" stroke-width="1"/>
<line x1="70.0" y1="404.0" x2="490.0" y2="404.0" stroke="#333" stroke-width="1"/>
<text x="280.0" y="444.0" font-size="12" fill="#222" text-anchor="middle" font-weight="normal">cumulative cost (USD, incl. self-evolution / training)</text>
<text transform="rotate(-90 18 225.0)" x="18.0" y="225.0" font-size="12" fill="#222" text-anchor="middle" font-weight="normal">prequential EM</text>
<text x="70.0" y="422.0" font-size="10" fill="#666" text-anchor="middle" font-weight="normal">$0.00</text>
<text x="154.0" y="422.0" font-size="10" fill="#666" text-anchor="middle" font-weight="normal">$0.08</text>
<text x="238.0" y="422.0" font-size="10" fill="#666" text-anchor="middle" font-weight="normal">$0.17</text>
<text x="322.0" y="422.0" font-size="10" fill="#666" text-anchor="middle" font-weight="normal">$0.25</text>
<text x="406.0" y="422.0" font-size="10" fill="#666" text-anchor="middle" font-weight="normal">$0.33</text>
<text x="490.0" y="422.0" font-size="10" fill="#666" text-anchor="middle" font-weight="normal">$0.42</text>
<polyline points="74.4,46.0 90.5,46.0 106.2,46.0 120.6,135.5 135.7,117.6 150.1,165.3 166.2,148.3 182.8,135.5 197.2,125.6 211.6,117.6 229.5,143.6 245.7,135.5 307.3,156.2 323.3,148.3 341.3,141.5 355.3,157.9 374.3,151.3 389.3,145.4 405.6,159.1 420.3,153.4 434.9,165.3 449.2,159.9 465.0,170.5 481.8,165.3" fill="none" stroke="#888888" stroke-width="2.4"/>
<line x1="504.0" y1="52.0" x2="526.0" y2="52.0" stroke="#888888" stroke-width="3"/>
<text x="532.0" y="56.0" font-size="11" fill="#222" text-anchor="start" font-weight="normal">no-memory (lower bound) (0.667)</text>
<polyline points="74.5,46.0 90.1,225.0 106.2,165.3 120.8,225.0 135.9,189.2 150.9,225.0 168.3,199.4 185.5,180.2 200.0,165.3 215.5,153.4 234.7,176.2 251.6,165.3 285.0,183.7 301.8,173.9 320.0,165.3 334.8,180.2 351.4,172.4 367.5,165.3 383.7,177.9 399.4,171.3 413.7,165.3 428.8,159.9 445.7,170.5 463.2,165.3" fill="none" stroke="#2ca02c" stroke-width="2.4"/>
<line x1="504.0" y1="72.0" x2="526.0" y2="72.0" stroke="#2ca02c" stroke-width="3"/>
<text x="532.0" y="76.0" font-size="11" fill="#222" text-anchor="start" font-weight="normal">episodic (raw exemplars) (0.667)</text>
</svg>