<svg xmlns="http://www.w3.org/2000/svg" width="660" height="460" font-family="Helvetica,Arial,sans-serif">
<rect width="660" height="460" fill="white"/>
<text x="64.0" y="26.0" font-size="16" fill="#222" text-anchor="start" font-weight="bold">Final accuracy by method (ifbench_agentic, 1 seeds)</text>
<line x1="64.0" y1="390.0" x2="636.0" y2="390.0" stroke="#e8e8e8" stroke-width="1"/>
<text x="56.0" y="394.0" font-size="11" fill="#666" text-anchor="end" font-weight="normal">0.0</text>
<line x1="64.0" y1="323.2" x2="636.0" y2="323.2" stroke="#e8e8e8" stroke-width="1"/>
<text x="56.0" y="327.2" font-size="11" fill="#666" text-anchor="end" font-weight="normal">0.2</text>
<line x1="64.0" y1="256.4" x2="636.0" y2="256.4" stroke="#e8e8e8" stroke-width="1"/>
<text x="56.0" y="260.4" font-size="11" fill="#666" text-anchor="end" font-weight="normal">0.4</text>
<line x1="64.0" y1="189.6" x2="636.0" y2="189.6" stroke="#e8e8e8" stroke-width="1"/>
<text x="56.0" y="193.6" font-size="11" fill="#666" text-anchor="end" font-weight="normal">0.6</text>
<line x1="64.0" y1="122.8" x2="636.0" y2="122.8" stroke="#e8e8e8" stroke-width="1"/>
<text x="56.0" y="126.8" font-size="11" fill="#666" text-anchor="end" font-weight="normal">0.8</text>
<line x1="64.0" y1="56.0" x2="636.0" y2="56.0" stroke="#e8e8e8" stroke-width="1"/>
<text x="56.0" y="60.0" font-size="11" fill="#666" text-anchor="end" font-weight="normal">1.0</text>
<line x1="64.0" y1="56.0" x2="64.0" y2="390.0" stroke="#333" stroke-width="1"/>
<line x1="64.0" y1="390.0" x2="636.0" y2="390.0" stroke="#333" stroke-width="1"/>
<text transform="rotate(-90 16 223.0)" x="16.0" y="223.0" font-size="12" fill="#222" text-anchor="middle" font-weight="normal">final EM</text>
<rect x="207.0" y="111.7" width="286.0" height="278.3" fill="#1f77b4" fill-opacity="0.85"/>
<circle cx="350.0" cy="111.7" r="3.2" fill="#222"/>
<text x="350.0" y="103.7" font-size="12" fill="#222" text-anchor="middle" font-weight="bold">0.833</text>
<text x="350.0" y="408.0" font-size="12" fill="#222" text-anchor="middle" font-weight="normal">ours-full</text>
<text x="350.0" y="424.0" font-size="10" fill="#666" text-anchor="middle" font-weight="normal">$3.10</text>
<text x="350.0" y="438.0" font-size="9" fill="#999" text-anchor="middle" font-weight="normal">0.27 EM/$</text>
</svg>